<?xml version="1.0" encoding="UTF-8"?>
<svg width="117px" height="34px" viewBox="0 0 117 34" version="1.1" xmlns="http://www.w3.org/2000/svg" xmlns:xlink="http://www.w3.org/1999/xlink">
    <title>Logo</title>
    <desc>Created with Sketch.</desc>
    <g id="Dashboard" stroke="none" stroke-width="1" fill="none" fill-rule="evenodd">
        <g id="Logo" fill="#FFFFFF" fill-rule="nonzero">
            <path d="M9.491 2.999c-0.751 0.014-1.512-0.664-1.493-1.499 0.019-0.893 0.701-1.51 1.511-1.5 0.856 0.01 1.487 0.657 1.49 1.494 0 0.83-0.613 1.473-1.507 1.505zM28.854 17.733c-0.099-0.565-0.243-1.126-0.394-1.681-0.26-0.955-0.629-1.871-1.171-2.703-0.304-0.469-0.634-0.934-1.023-1.33-0.363-0.369-0.798-0.68-1.239-0.959-0.719-0.455-1.526-0.68-2.379-0.721-0.309-0.014-0.618-0.02-0.925 0.003-0.364 0.029-0.728 0.084-1.09 0.143-0.548 0.09-1.092 0.225-1.644 0.28-0.411 0.041-0.835 0-1.251-0.033-0.549-0.042-1.058-0.236-1.526-0.519-0.494-0.299-0.898-0.696-1.252-1.151-0.332-0.422-0.69-0.824-1.036-1.234-0.426-0.506-0.91-0.942-1.499-1.26-1.028-0.552-2.132-0.646-3.263-0.507-0.774 0.095-1.513 0.348-2.217 0.683-0.828 0.391-1.573 0.915-2.252 1.519-0.626 0.557-1.207 1.167-1.705 1.842-0.884 1.204-1.574 2.51-2.067 3.916-0.34 0.969-0.61 1.954-0.722 2.976-0.082 0.759-0.158 1.52-0.193 2.283-0.021 0.463 0.024 0.93 0.076 1.393 0.074 0.651 0.161 1.304 0.279 1.948 0.21 1.151 0.581 2.258 1.101 3.307 0.354 0.714 0.753 1.414 1.208 2.067 0.451 0.646 0.97 1.254 1.518 1.825 0.447 0.467 0.966 0.871 1.474 1.275 1.106 0.881 2.35 1.538 3.674 2.025 1.575 0.579 3.215 0.866 4.906 0.885 0.626-0.053 1.254-0.088 1.876-0.165 0.543-0.069 1.089-0.157 1.621-0.29 1.149-0.285 2.251-0.707 3.299-1.264 1.077-0.571 2.07-1.258 2.964-2.076 0.526-0.481 1.006-1.016 1.486-1.544 0.599-0.659 1.1-1.387 1.549-2.154 0.528-0.902 0.971-1.834 1.289-2.829 0.352-1.105 0.575-2.237 0.651-3.392 0.058-0.849 0.027-1.708-0.119-2.552zM20.012 18.114v2.84h-3.744v-2.84h-3.534v3.245h3.536v3.649h-3.536v3.245h-3.744v-13.789h3.744v3.649h7.279v3.245zM44.019 20.081c-0.336 0-0.61 0.136-0.82 0.408-0.21 0.271-0.318 0.663-0.318 1.178v2.24c0 0.49 0.108 0.875 0.318 1.146 0.21 0.271 0.484 0.408 0.82 0.408 0.336 0 0.61-0.137 0.82-0.408 0.21-0.271 0.318-0.656 0.318-1.146v-2.24c0-0.514-0.108-0.907-0.318-1.178-0.21-0.272-0.484-0.408-0.82-0.408m-0.041 6.78c-0.72 0-1.324-0.232-1.81-0.695-0.486-0.463-0.73-1.139-0.73-2.027v-2.39c0-0.887 0.244-1.563 0.73-2.025 0.486-0.463 1.09-0.695 1.81-0.695 0.719 0 1.323 0.232 1.809 0.695 0.486 0.463 0.729 1.138 0.729 2.025v2.39c0 0.888-0.243 1.564-0.729 2.027-0.486 0.463-1.09 0.695-1.809 0.695m11.259-1.12v-5.205h1.96c0.405 0 0.728 0.095 0.968 0.287 0.24 0.191 0.359 0.494 0.359 0.908 0 0.413-0.12 0.716-0.359 0.907-0.24 0.192-0.563 0.287-0.968 0.287h-1.96zm0 1.84v2.8h-1.796v-11.319h3.852c0.75 0 1.372 0.184 1.865 0.55 0.493 0.367 0.74 0.896 0.74 1.588 0 0.48-0.112 0.896-0.338 1.25-0.224 0.352-0.557 0.607-0.996 0.762v0.041c0.524 0.065 0.938 0.271 1.242 0.625 0.304 0.353 0.456 0.826 0.456 1.418 0 0.816-0.278 1.457-0.835 1.926-0.555 0.467-1.308 0.701-2.26 0.701h-3.73zm8.109-7.955h-1.959v8.24c0 0.512 0.131 0.896 0.392 1.152 0.262 0.256 0.61 0.384 1.047 0.384 0.292 0 0.585-0.031 0.878-0.098v1.544c-0.255 0.061-0.553 0.092-0.895 0.092-0.82 0-1.469-0.238-1.944-0.712-0.473-0.476-0.712-1.148-0.712-2.014v-8.588h-1.918v-1.52h1.918v-2.904h1.796v2.904h1.959v1.52zm9.004 2.96h-2.58l-0.452 1.892h3.465l-0.433-1.892zm-3.745 5.6l-0.771 3.319h-1.852l3.285-13.289h2.264l3.319 13.289h-1.933l-0.77-3.319h-4.542zm12.805-1.72v-2.24c0-0.515-0.108-0.907-0.318-1.178-0.21-0.272-0.484-0.408-0.82-0.408-0.337 0-0.611 0.136-0.82 0.408-0.21 0.271-0.318 0.663-0.318 1.178v2.24c0 0.49 0.108 0.875 0.318 1.146 0.209 0.271 0.483 0.408 0.82 0.408 0.336 0 0.61-0.137 0.82-0.408 0.21-0.271 0.318-0.656 0.318-1.146m1.855 2.24c0 0.888-0.244 1.564-0.73 2.027-0.487 0.463-1.091 0.695-1.81 0.695s-1.324-0.232-1.81-0.695c-0.486-0.463-0.73-1.139-0.73-2.027v-2.39c0-0.887 0.244-1.563 0.73-2.025 0.486-0.463 1.09-0.695 1.81-0.695s1.323 0.232 1.81 0.695c0.486 0.463 0.73 1.138 0.73 2.025v2.39zm5.962-4.4v-1.04c0-0.515-0.108-0.906-0.318-1.178-0.209-0.272-0.483-0.408-0.82-0.408s-0.611 0.136-0.82 0.408c-0.21 0.271-0.318 0.663-0.318 1.178v1.04h2.276zm-2.276 1.504v3.088h-1.796v-8.992h1.796v1.04c0.505-0.75 1.154-1.12 1.947-1.12 0.718 0 1.322 0.232 1.809 0.695 0.486 0.463 0.729 1.138 0.729 2.025v5.352h-1.796v-3.088c0-0.515-0.108-0.907-0.318-1.178-0.21-0.272-0.484-0.408-0.82-0.408-0.337 0-0.611 0.136-0.82 0.408-0.21 0.271-0.318 0.663-0.318 1.178" id="LMS-Text"></path>
        </g>
    </g>
</svg>
